<svg width="220" height="120" viewBox="0 0 220 120" fill="none" xmlns="http://www.w3.org/2000/svg">
  <rect width="220" height="120" rx="28" fill="url(#bg)"/>
  <circle cx="60" cy="53" r="24" fill="#EAF8F7"/>
  <path d="M60 31C50.6 31 43 38.6 43 48C43 61.5 60 81 60 81C60 81 77 61.5 77 48C77 38.6 69.4 31 60 31ZM60 56C55.6 56 52 52.4 52 48C52 43.6 55.6 40 60 40C64.4 40 68 43.6 68 48C68 52.4 64.4 56 60 56Z" fill="#2A8793"/>
  <path d="M94 39H169C174.5 39 179 43.5 179 49V79C179 84.5 174.5 89 169 89H94C88.5 89 84 84.5 84 79V49C84 43.5 88.5 39 94 39Z" fill="white" fill-opacity="0.88"/>
  <path d="M100 53H163" stroke="#2A8793" stroke-width="7" stroke-linecap="round"/>
  <path d="M100 71H145" stroke="#78BF8C" stroke-width="7" stroke-linecap="round"/>
  <text x="110" y="26" text-anchor="middle" font-family="Arial, sans-serif" font-size="18" font-weight="700" fill="#214B57">ELMS</text>
  <defs>
    <linearGradient id="bg" x1="0" y1="0" x2="220" y2="120" gradientUnits="userSpaceOnUse">
      <stop stop-color="#DDF5F7"/>
      <stop offset="1" stop-color="#DFF4E4"/>
    </linearGradient>
  </defs>
</svg>
